<?xml version="1.0" standalone="no"?>
<!DOCTYPE svg PUBLIC "-//W3C//DTD SVG 20010904//EN"
 "http://www.w3.org/TR/2001/REC-SVG-20010904/DTD/svg10.dtd">
<svg version="1.0" xmlns="http://www.w3.org/2000/svg"
 width="1493.000000pt" height="1000.000000pt" viewBox="0 0 1493.000000 1000.000000"
 preserveAspectRatio="xMidYMid meet">

<g transform="translate(0.000000,1000.000000) scale(0.100000,-0.100000)"
fill="#000000" stroke="none">
<path d="M7501 9955 c-19 -21 -29 -24 -57 -19 -29 5 -41 1 -82 -32 -26 -21
-89 -81 -139 -133 -57 -57 -93 -87 -93 -77 0 26 -50 117 -60 111 -13 -8 -13
-41 0 -64 5 -10 14 -37 19 -60 9 -40 8 -42 -28 -68 -20 -14 -48 -41 -61 -60
-14 -18 -39 -53 -56 -76 -175 -237 -319 -435 -359 -493 -35 -50 -54 -70 -66
-67 -16 5 -59 -39 -59 -60 0 -5 -76 -125 -169 -266 -175 -265 -499 -800 -649
-1071 -181 -327 -381 -778 -388 -875 -1 -16 -23 -81 -48 -143 -26 -62 -51
-134 -56 -160 -5 -26 -25 -83 -45 -127 -57 -123 -172 -405 -227 -555 -27 -74
-53 -139 -58 -145 -9 -13 -114 -307 -170 -480 -62 -191 -149 -511 -156 -571
-6 -51 -6 -53 20 -60 18 -4 33 -1 44 8 9 8 37 22 62 30 25 9 95 35 155 59 104
41 116 43 220 45 l110 1 -74 -13 c-91 -16 -104 -21 -96 -35 5 -7 30 -8 74 -4
174 17 293 43 391 85 36 15 94 31 128 35 62 7 64 7 53 -13 -6 -12 -16 -24 -21
-27 -6 -3 -10 -15 -10 -26 0 -27 32 -24 59 5 13 14 33 26 45 28 12 2 30 20 45
46 23 43 260 297 268 288 3 -2 -3 -16 -13 -31 -12 -18 -14 -29 -6 -37 16 -16
74 28 67 51 -3 10 18 51 56 106 74 110 138 178 154 165 8 -7 31 12 75 64 35
41 73 79 86 85 13 6 24 16 24 24 0 7 18 37 40 66 42 55 48 87 17 85 -21 -2
-21 2 -1 124 8 53 19 169 22 256 l7 160 36 -60 c50 -82 165 -384 197 -519 6
-22 26 -76 46 -121 47 -106 248 -624 250 -646 1 -10 9 -25 18 -35 27 -32 27
-50 2 -84 -13 -18 -24 -39 -24 -46 0 -21 27 -27 60 -13 27 11 31 10 56 -19 29
-35 74 -43 74 -13 0 19 54 57 69 48 4 -3 22 -1 39 4 l32 9 -24 -36 c-14 -19
-22 -42 -19 -49 5 -14 43 -20 43 -6 0 4 20 15 45 26 25 10 92 52 148 92 l102
75 140 -5 c77 -2 178 -9 225 -15 123 -16 274 -29 283 -23 5 2 6 13 4 24 -5 17
-2 19 21 14 51 -12 57 -11 57 9 0 22 40 55 66 55 30 0 30 -30 -1 -75 -48 -70
-32 -91 26 -34 28 27 34 29 53 18 34 -22 46 0 32 55 l-11 46 77 105 c60 82 79
102 90 94 24 -21 57 15 120 133 55 101 78 130 200 258 76 78 152 149 169 156
18 8 42 27 54 43 18 27 20 35 10 70 -6 22 -15 43 -20 46 -6 4 5 25 25 48 37
43 43 65 23 85 -20 20 -45 14 -83 -19 -34 -31 -36 -31 -55 -14 -11 10 -20 24
-20 31 0 8 -14 26 -31 41 -38 35 -189 256 -189 278 0 10 -8 34 -19 54 -61 118
-203 416 -226 476 -15 38 -88 196 -162 350 -199 413 -266 567 -303 695 -19 63
-49 153 -67 200 -18 47 -51 146 -74 220 -22 74 -62 200 -89 280 -27 80 -65
215 -85 300 -20 85 -81 333 -135 550 -96 384 -130 535 -130 578 0 11 -8 28
-17 38 -10 10 -27 51 -38 92 -12 42 -25 77 -30 79 -6 1 -21 -9 -34 -22z m15
-310 c2 -303 133 -956 292 -1465 44 -140 96 -310 116 -376 34 -117 160 -443
251 -649 24 -55 67 -163 96 -240 62 -170 247 -539 365 -730 47 -77 104 -182
126 -234 52 -124 93 -204 112 -220 8 -7 24 -10 34 -7 27 9 96 -88 82 -115 -15
-27 -12 -77 4 -86 11 -6 -10 -35 -88 -121 -57 -63 -132 -149 -167 -192 -35
-44 -70 -79 -76 -80 -15 0 -36 -17 -99 -78 -35 -34 -44 -49 -44 -76 0 -19 -8
-44 -18 -56 -17 -21 -18 -18 -71 157 -83 272 -255 780 -394 1163 -69 190 -137
386 -152 435 -14 50 -30 97 -35 106 -44 85 -322 1129 -410 1546 -18 82 -40
180 -50 218 -34 126 -171 806 -181 897 -12 103 -8 112 52 122 36 6 40 9 37 31
-4 35 192 239 207 215 5 -8 10 -82 11 -165z m-416 -227 c6 -29 36 -225 66
-436 30 -211 66 -436 80 -500 14 -64 34 -162 45 -217 23 -116 34 -159 89 -355
22 -80 59 -230 81 -335 23 -104 46 -201 51 -215 6 -14 25 -81 43 -150 18 -69
56 -185 84 -258 32 -82 69 -207 96 -322 32 -137 53 -207 79 -257 20 -38 36
-76 36 -84 0 -27 128 -524 166 -647 20 -64 63 -187 96 -272 33 -85 68 -180 78
-210 10 -30 48 -120 84 -199 36 -80 64 -146 62 -148 -2 -2 -25 7 -52 21 -68
34 -182 64 -273 72 -127 11 -127 9 3 109 64 49 116 93 116 97 0 13 -24 9 -48
-8 -12 -8 -47 -22 -77 -30 -31 -8 -90 -27 -132 -44 l-76 -29 32 32 c17 18 31
41 31 50 0 41 -50 10 -179 -109 -34 -31 -97 -73 -158 -104 -55 -28 -129 -75
-164 -104 -75 -61 -146 -110 -174 -119 -19 -7 16 29 74 76 12 10 19 22 16 27
-8 13 -38 13 -51 1 -7 -8 -130 -41 -150 -41 -5 0 -47 91 -58 128 -5 16 -3 22
7 22 26 0 25 24 -2 110 -28 89 -57 122 -49 56 2 -20 1 -33 -2 -28 -15 17 -150
350 -150 369 0 2 4 2 9 -2 18 -10 22 14 8 48 -8 18 -28 49 -44 68 -19 22 -50
92 -88 194 -32 88 -66 179 -76 203 -11 24 -19 57 -19 73 0 35 -30 98 -73 153
-24 30 -33 55 -40 105 -19 148 -23 165 -35 169 -8 2 -18 -9 -25 -28 -8 -21
-17 -30 -28 -27 -32 9 -34 6 -177 -273 -33 -63 -124 -259 -202 -435 -78 -176
-174 -383 -213 -460 -38 -77 -91 -191 -117 -253 -42 -100 -49 -111 -61 -96
-20 25 -148 12 -311 -31 -159 -42 -476 -104 -535 -105 -75 0 -75 -1 -41 118
16 59 40 156 53 216 18 82 34 125 64 175 49 82 96 199 110 276 6 33 19 75 29
95 10 19 50 96 89 170 80 152 123 277 153 443 17 95 32 141 91 273 39 87 91
193 114 234 24 41 53 107 65 145 32 105 88 227 159 350 78 135 105 195 126
277 19 71 181 398 343 688 63 114 198 328 325 515 173 256 246 355 368 495
177 203 209 246 209 273 0 17 25 57 36 57 1 0 7 -24 14 -52z m1044 -1894 c15
-37 25 -68 23 -70 -2 -3 -13 19 -25 48 -11 29 -23 61 -27 71 -4 9 -5 17 -2 17
3 0 17 -30 31 -66z m-2753 -801 c-12 -20 -14 -14 -5 12 4 9 9 14 11 11 3 -2 0
-13 -6 -23z m986 -825 c-2 -18 -4 -4 -4 32 0 36 2 50 4 33 2 -18 2 -48 0 -65z
m-42 -435 c-3 -14 -13 -23 -24 -23 -19 0 -164 -145 -340 -340 -57 -63 -108
-119 -113 -125 -11 -12 4 24 97 230 92 207 199 414 297 580 l83 140 3 -220 c1
-121 0 -230 -3 -242z m2809 41 c9 -3 16 -9 16 -13 0 -3 -34 -37 -75 -74 l-74
-68 19 43 c20 45 75 118 90 118 4 0 15 -3 24 -6z m-596 -724 c-13 -21 -28 -27
-28 -10 0 5 8 14 18 19 23 14 24 14 10 -9z m-2938 -63 c0 -36 -45 -44 -160
-30 l-55 7 85 17 c108 21 130 22 130 6z m1790 -7 c0 -15 -48 -43 -60 -35 -6 4
-2 14 12 25 25 21 48 26 48 10z m-2017 -27 c-7 -2 -19 -2 -25 0 -7 3 -2 5 12
5 14 0 19 -2 13 -5z m2197 -57 c0 -2 -41 -29 -90 -61 -96 -60 -146 -73 -61
-15 81 55 151 90 151 76z m-2431 -20 c-2 -2 -31 -6 -64 -9 -39 -4 -54 -3 -45
3 14 9 119 15 109 6z"/>
<path d="M6573 8227 c-18 -21 -39 -49 -45 -62 -6 -13 -19 -26 -31 -29 -14 -3
-18 -10 -14 -26 3 -12 -5 -45 -19 -76 -13 -30 -24 -61 -24 -69 0 -9 -24 -64
-54 -123 -29 -59 -88 -183 -131 -276 -65 -144 -75 -171 -62 -180 12 -10 7 -28
-36 -126 -27 -63 -62 -133 -77 -155 -110 -163 -159 -295 -110 -295 11 0 23 7
26 15 7 18 65 20 82 3 15 -15 115 3 234 42 48 16 124 34 170 40 84 10 172 34
196 53 7 6 11 16 8 23 -9 22 14 27 36 8 19 -18 20 -18 34 1 8 10 14 24 14 30
0 7 11 17 25 23 14 6 25 17 25 23 0 7 -10 9 -25 7 -23 -5 -25 -2 -25 27 0 21
6 35 17 39 14 6 15 21 10 124 -6 120 -27 275 -52 391 -8 36 -26 174 -40 306
-35 321 -30 302 -67 301 -21 -1 -40 -12 -65 -39z m81 -132 c7 -71 2 -64 -18
24 -12 53 -13 62 -1 50 7 -8 16 -41 19 -74z m-59 -174 c5 -57 4 -82 -3 -77
-22 13 -23 -16 -2 -39 14 -15 24 -44 30 -86 11 -75 69 -589 73 -637 l2 -33
-105 -33 c-58 -19 -172 -46 -255 -61 -82 -15 -181 -36 -218 -47 -37 -12 -70
-18 -73 -15 -3 3 20 55 51 116 30 62 75 160 99 219 60 147 256 591 324 736
l57 120 6 -40 c4 -21 10 -77 14 -123z m78 -146 l6 -30 -14 30 c-8 17 -14 41
-14 55 l1 25 7 -25 c4 -14 11 -38 14 -55z m48 -365 c6 -58 9 -127 7 -155 -3
-46 -10 8 -44 320 -4 39 -3 38 11 -10 8 -27 20 -97 26 -155z"/>
<path d="M10737 9913 c-4 -3 -7 -19 -7 -35 0 -21 -5 -28 -20 -28 -11 0 -29 -9
-40 -20 -18 -18 -20 -33 -20 -144 0 -110 -2 -125 -17 -130 -10 -3 -121 -25
-248 -50 -126 -25 -374 -75 -550 -112 -283 -59 -334 -67 -438 -68 -99 -1 -117
-3 -115 -16 3 -12 25 -15 128 -14 104 1 159 8 331 42 222 45 229 46 229 33 0
-5 -8 -7 -19 -4 -30 8 -33 -12 -6 -51 14 -20 25 -48 25 -62 0 -14 8 -39 17
-54 16 -27 15 -47 0 -312 -10 -156 -22 -384 -27 -508 -6 -124 -15 -306 -21
-405 -6 -102 -11 -529 -12 -990 l0 -810 26 -225 c14 -124 34 -259 43 -300 10
-47 19 -157 24 -295 7 -181 12 -232 30 -290 16 -55 21 -96 21 -187 0 -97 3
-118 14 -118 8 0 15 9 15 20 0 13 7 20 19 20 28 0 45 27 43 68 -2 19 4 78 13
131 9 52 17 153 18 225 2 124 1 131 -18 131 -20 0 -22 -4 -49 -124 -16 -71
-30 -42 -21 44 3 33 -1 164 -9 290 -22 319 -22 1013 -1 1029 12 9 16 54 21
231 7 229 -9 1210 -27 1635 -6 135 -14 387 -18 560 -6 265 -10 320 -24 346
l-16 32 32 5 c171 31 565 97 575 97 20 0 17 -3368 -3 -3620 -26 -317 -72 -751
-91 -857 -7 -36 -10 -37 -107 -6 -73 23 -84 60 -43 141 13 26 45 71 71 100 32
36 45 58 41 69 -6 13 -18 5 -67 -43 -180 -178 -168 -312 34 -366 l48 -12 -8
-76 c-17 -155 -2 -258 32 -230 7 6 16 21 19 34 5 19 11 22 36 18 17 -2 36 0
43 5 8 6 20 5 35 -2 22 -12 20 -14 -57 -69 -64 -44 -81 -62 -81 -81 0 -14 8
-29 19 -35 16 -8 32 -2 85 35 36 24 68 40 71 35 3 -6 13 -10 20 -10 18 0 104
39 165 75 25 14 34 18 20 8 -122 -90 -140 -105 -140 -122 0 -28 31 -36 37 -10
9 35 432 306 440 282 8 -24 53 -15 63 12 16 43 198 152 390 232 96 41 231 101
299 133 73 36 121 54 117 45 -10 -27 15 -27 35 0 25 31 215 157 434 287 440
261 442 262 495 271 64 10 607 258 624 285 17 29 -25 15 -183 -58 -95 -44
-175 -80 -179 -80 -4 0 43 28 103 61 230 128 392 229 402 252 11 24 170 137
193 137 7 0 34 18 59 41 25 23 115 86 199 140 110 72 156 107 163 127 6 15 25
43 44 62 18 19 42 51 54 69 11 19 40 51 65 70 54 44 166 137 221 184 34 30 38
37 26 51 -18 21 -34 12 -146 -84 -49 -42 -101 -83 -114 -90 l-25 -13 20 26
c10 14 60 69 109 123 180 198 212 244 169 244 -24 0 -76 -40 -70 -55 5 -14
-35 -63 -199 -244 -96 -105 -135 -139 -135 -115 0 4 28 39 63 78 173 195 199
228 188 239 -14 14 -26 3 -185 -188 -120 -143 -141 -178 -114 -187 7 -3 -28
-32 -77 -66 -50 -33 -116 -79 -149 -101 -32 -23 -63 -41 -69 -41 -5 0 37 48
94 108 394 408 580 788 556 1132 -44 607 -704 1226 -1652 1550 -501 170 -945
242 -1505 242 -286 1 -473 -10 -694 -38 -65 -8 -125 -13 -132 -10 -9 4 -14 22
-14 53 -1 101 -32 273 -50 273 -4 0 -10 -3 -13 -7z m1178 -353 c392 -26 759
-96 1121 -214 532 -173 937 -408 1259 -731 569 -569 553 -1121 -54 -1803 -122
-137 -294 -288 -374 -329 -91 -45 -183 -107 -191 -128 -3 -9 -6 -25 -6 -35 0
-21 -134 -125 -298 -231 -59 -37 -138 -90 -177 -118 -157 -110 -269 -174 -335
-190 -66 -17 -344 -159 -553 -283 -55 -32 -106 -58 -114 -58 -9 0 -66 -29
-127 -65 -170 -98 -333 -172 -513 -231 -269 -89 -510 -143 -710 -160 l-83 -7
0 709 c0 390 5 817 10 949 24 574 30 751 41 1100 12 438 16 1499 5 1671 l-8
121 128 13 c317 30 707 38 979 20z m-1135 -536 c-1 -253 -5 -495 -9 -539 -4
-46 -8 157 -9 469 -1 375 2 546 9 539 7 -7 10 -167 9 -469z m-757 -1391 c2
-101 0 -183 -5 -183 -4 0 -7 89 -7 198 2 238 6 232 12 -15z m2146 -2367 c-10
-9 -269 -136 -269 -131 0 6 251 134 264 134 5 1 7 -1 5 -3z m-1119 -414 c-96
-55 -201 -115 -232 -136 l-58 -37 0 104 0 104 103 7 c56 4 156 17 222 30 66
13 124 24 130 25 5 0 -69 -43 -165 -97z"/>
<path d="M11794 8802 c-33 -21 -80 -169 -99 -312 -19 -135 -30 -356 -21 -403
13 -70 26 -38 26 63 0 191 45 509 77 541 18 18 -14 -471 -33 -502 -2 -4 -13
-67 -24 -139 -26 -169 -98 -515 -145 -695 -20 -77 -36 -158 -35 -180 4 -139
-2 -189 -50 -428 -28 -141 -50 -267 -48 -279 2 -17 11 -24 31 -26 24 -3 29 2
48 45 11 26 23 61 26 77 4 17 14 31 25 34 10 2 25 17 34 33 17 34 25 36 42 9
22 -35 49 -24 99 40 26 34 61 68 77 76 17 8 81 55 141 104 61 50 200 151 310
226 452 308 615 455 615 555 0 10 26 38 63 65 107 82 167 136 167 150 0 27
-29 14 -107 -47 -105 -84 -112 -88 -82 -54 45 51 62 84 56 110 -4 22 1 28 29
40 39 16 59 52 50 89 -13 52 -192 161 -411 251 -38 16 -117 61 -175 100 -58
40 -143 95 -190 123 -90 53 -290 152 -309 152 -25 0 -10 -40 21 -56 l31 -16
-24 -19 -24 -18 -14 40 c-8 26 -18 39 -26 35 -7 -2 -16 2 -19 10 -7 17 -45 19
-50 2 -2 -7 -8 -60 -14 -118 -10 -92 -50 -295 -57 -288 -2 2 4 59 12 128 21
180 23 455 3 474 -8 9 -20 12 -26 8z m337 -364 c8 -15 5 -16 -25 -11 l-34 5 0
-46 c0 -44 3 -49 41 -77 23 -17 62 -42 87 -55 25 -13 81 -49 125 -80 44 -30
131 -84 192 -119 62 -35 145 -90 185 -121 40 -32 75 -59 77 -61 2 -1 -4 -18
-13 -37 -20 -42 -20 -70 -2 -89 13 -13 11 -18 -12 -40 -15 -15 -65 -45 -112
-68 -147 -71 -306 -181 -450 -312 -41 -37 -94 -76 -117 -87 -72 -32 -144 -85
-258 -189 -104 -95 -153 -124 -141 -83 3 9 10 55 17 102 6 47 18 92 25 100 21
24 70 138 92 215 32 107 67 273 96 450 15 88 33 196 40 240 8 44 14 103 14
130 1 50 17 95 84 233 l30 63 25 -23 c14 -13 29 -31 34 -40z m450 -220 l34
-28 -30 10 c-37 14 -112 57 -120 70 -11 18 83 -24 116 -52z m260 -104 c61 -31
108 -58 106 -60 -6 -7 -192 78 -212 97 -31 30 -11 23 106 -37z m29 -176 c0 -6
-7 -5 -15 2 -8 7 -15 17 -15 22 0 6 7 5 15 -2 8 -7 15 -17 15 -22z m-1034
-259 c-36 -175 -80 -341 -97 -369 -8 -12 -9 -11 -5 5 3 11 21 101 41 200 35
177 81 352 91 342 3 -3 -11 -83 -30 -178z m-136 -870 c-8 -15 -8 -24 0 -33 8
-10 2 -21 -25 -45 -20 -17 -38 -31 -41 -31 -16 0 12 69 39 98 36 37 42 40 27
11z"/>
<path d="M3585 9154 c-136 -11 -343 -38 -460 -59 -71 -13 -168 -29 -214 -35
-46 -6 -113 -22 -150 -35 -87 -31 -233 -71 -582 -160 -158 -40 -296 -78 -308
-84 -12 -7 -55 -23 -95 -36 -40 -13 -131 -51 -202 -83 -71 -33 -174 -79 -229
-102 -172 -73 -370 -177 -490 -258 -27 -19 -113 -65 -190 -102 -153 -73 -494
-231 -537 -249 -17 -6 -28 -18 -28 -30 0 -11 -6 -24 -14 -28 -20 -12 -66 -83
-66 -104 0 -22 29 -52 45 -45 18 6 34 -34 46 -117 11 -69 13 -1112 3 -1128 -2
-4 -9 -247 -14 -541 -9 -526 -28 -1037 -52 -1438 -16 -271 -15 -1088 1 -1119
19 -34 64 -25 73 14 3 17 6 -23 6 -88 -1 -64 1 -120 5 -123 17 -18 36 10 46
68 49 290 108 1133 118 1703 10 576 -35 1924 -77 2285 -5 47 -10 136 -10 198
0 62 -4 120 -9 130 -5 9 -15 57 -21 107 -9 73 -9 90 2 94 37 12 229 119 451
252 237 142 259 153 446 220 326 118 630 249 681 294 8 8 138 48 289 90 151
42 324 92 385 111 125 39 676 154 740 154 56 0 103 15 124 39 18 20 104 29
490 48 99 5 125 9 135 23 22 31 128 33 218 4 152 -48 219 -121 219 -239 0
-256 -302 -644 -1020 -1310 -216 -200 -1146 -1043 -1175 -1065 -20 -15 -20
-14 -1 8 14 15 16 26 9 33 -17 17 -293 -289 -293 -325 0 -42 87 2 205 103 l60
52 12 -28 c7 -15 10 -40 7 -54 -3 -16 3 -40 14 -60 27 -47 55 -141 87 -289 35
-164 94 -337 162 -480 30 -63 72 -158 92 -210 21 -52 61 -143 90 -201 28 -59
51 -109 51 -113 0 -3 45 -103 100 -222 86 -185 99 -219 87 -233 -8 -10 -12
-40 -11 -83 2 -51 -1 -68 -13 -72 -8 -3 -11 -10 -8 -16 3 -5 12 -32 19 -60 11
-42 11 -52 0 -61 -22 -18 -16 -55 25 -153 22 -51 63 -164 91 -252 59 -185 104
-321 115 -349 5 -11 -29 15 -76 58 -46 42 -149 132 -228 200 -79 67 -207 181
-285 253 -77 72 -148 133 -157 137 -10 3 -23 23 -29 44 -7 21 -44 110 -83 198
-39 88 -103 258 -142 378 -40 120 -79 223 -88 230 -16 12 -87 179 -87 204 0 7
-13 34 -29 60 -19 32 -48 119 -86 258 -63 236 -86 295 -113 295 -13 0 -18 8
-17 28 0 49 -28 31 -62 -39 -23 -49 -38 -68 -56 -73 -14 -3 -29 -17 -35 -33
-59 -162 -116 -293 -237 -543 -120 -248 -215 -456 -237 -520 -7 -20 -12 0 -44
180 -19 111 -27 204 -34 395 -5 138 -16 324 -24 415 -9 91 -18 338 -20 550 -5
333 -22 726 -41 910 -17 168 -27 363 -34 681 -8 294 -12 362 -25 387 -19 38
-31 45 -55 37 -26 -8 -30 -23 -19 -80 5 -28 13 -203 18 -390 5 -187 13 -387
19 -445 36 -364 41 -529 41 -1422 0 -818 9 -1259 28 -1347 8 -35 35 -61 49
-47 4 4 10 87 12 184 l4 177 18 -95 c10 -52 18 -110 18 -127 1 -20 10 -42 22
-54 l21 -21 -23 -69 c-18 -53 -21 -73 -13 -87 18 -28 42 -26 71 6 16 17 35 32
44 34 10 1 40 36 67 77 48 71 57 99 26 87 -11 -4 -11 1 2 32 8 20 32 78 52
127 20 50 76 167 124 260 49 94 136 268 195 388 59 120 110 214 114 210 14
-15 70 -188 114 -352 52 -196 116 -399 215 -681 39 -113 85 -256 101 -319 16
-63 36 -122 44 -131 8 -9 21 -32 30 -53 12 -28 21 -37 40 -37 45 0 49 30 15
116 -53 134 -27 89 38 -65 34 -81 68 -156 76 -167 23 -30 31 -8 13 37 -13 32
-13 38 -2 29 8 -6 18 -9 22 -7 13 8 158 -122 158 -141 0 -9 40 -48 90 -87 49
-38 136 -114 192 -169 86 -82 107 -97 128 -94 19 4 36 -4 70 -34 24 -21 53
-41 64 -43 12 -2 36 -16 55 -30 73 -56 120 -1 52 61 -29 27 -35 38 -30 61 3
17 -5 60 -20 108 -32 99 -33 117 -2 45 13 -30 34 -66 46 -79 20 -22 22 -23 37
-8 15 15 15 23 -1 98 -22 104 -74 253 -137 392 -56 127 -69 177 -46 177 9 0
26 -18 38 -40 25 -44 52 -58 75 -39 23 19 15 45 -61 214 -37 83 -83 186 -101
230 -19 44 -56 123 -83 175 -75 146 -144 310 -152 364 -9 56 -63 176 -79 176
-14 0 -44 70 -64 150 -9 34 -34 99 -56 144 -56 115 -95 228 -123 353 -36 160
-75 278 -97 298 -11 10 -20 23 -20 28 0 6 -18 41 -41 79 -69 114 -85 88 246
388 581 527 1147 1073 1423 1373 443 482 604 797 504 988 -73 139 -258 206
-592 213 -96 2 -197 2 -225 0z m-3356 -3344 c0 -420 -3 -640 -9 -630 -6 9 -9
293 -8 760 1 410 5 693 8 630 4 -63 8 -405 9 -760z m2871 -2205 c0 -5 -5 -3
-10 5 -5 8 -10 20 -10 25 0 6 5 3 10 -5 5 -8 10 -19 10 -25z"/>
<path d="M3215 8643 c-82 -10 -302 -58 -409 -89 -65 -19 -165 -46 -220 -60
-140 -35 -635 -178 -725 -208 -88 -31 -161 -72 -161 -91 0 -7 -9 -16 -19 -20
-10 -3 -38 -19 -61 -36 -30 -22 -41 -36 -37 -50 4 -14 -5 -24 -41 -41 -48 -24
-106 -73 -113 -97 -3 -9 -12 -11 -27 -7 -27 9 -29 43 -5 61 15 11 15 15 4 29
-14 17 -51 22 -51 7 0 -5 -9 -7 -20 -4 -17 4 -20 0 -20 -25 0 -17 -6 -32 -15
-35 -8 -4 -17 -26 -21 -56 -5 -40 -11 -51 -27 -53 -30 -4 -32 -26 -4 -33 32
-8 37 -34 37 -187 0 -139 16 -296 36 -353 8 -25 16 -103 19 -205 5 -157 24
-370 32 -370 2 0 15 7 28 16 l25 16 0 -42 c0 -34 -7 -52 -36 -87 -21 -26 -33
-50 -30 -59 9 -23 30 -7 162 118 127 120 244 223 244 215 0 -3 -25 -34 -55
-69 -53 -60 -64 -87 -39 -95 6 -2 44 33 84 79 41 46 82 86 93 91 11 4 144 130
296 280 391 387 420 413 571 522 273 198 278 199 73 21 -116 -101 -138 -126
-112 -126 6 0 118 89 248 197 558 467 688 599 666 681 -4 15 -8 45 -9 68 -2
83 -48 105 -213 103 -65 -1 -131 -4 -148 -6z m280 -47 c53 -23 42 -35 -17 -20
-29 8 -104 15 -168 16 -88 1 -103 3 -65 8 94 13 214 11 250 -4z m-317 -13
c-10 -2 -26 -2 -35 0 -10 3 -2 5 17 5 19 0 27 -2 18 -5z m-71 -9 c-3 -3 -12
-4 -19 -1 -8 3 -5 6 6 6 11 1 17 -2 13 -5z m351 -42 c8 -6 -19 -18 -77 -36
-93 -28 -139 -55 -127 -74 4 -7 25 -12 47 -12 21 0 39 -3 38 -7 0 -5 -48 -48
-105 -98 -57 -49 -102 -95 -100 -101 3 -7 -16 -30 -42 -51 -26 -21 -83 -70
-127 -109 -75 -66 -82 -70 -120 -66 -40 4 -44 1 -135 -86 -52 -49 -100 -87
-106 -85 -29 10 -463 -309 -689 -506 -86 -75 -304 -294 -345 -346 -21 -27 -55
-77 -74 -109 -28 -47 -36 -55 -36 -35 0 39 11 69 26 69 7 0 15 4 18 8 6 11 -7
137 -39 367 -21 147 -27 232 -27 375 -1 194 5 237 38 254 10 6 21 12 23 13 2
2 -1 9 -8 16 -9 11 25 31 181 106 244 117 321 141 503 152 228 14 463 81 687
196 126 66 148 85 129 115 -7 11 -11 21 -9 23 23 23 445 46 476 27z m-528 -77
c0 -10 -197 -103 -293 -139 -101 -38 -300 -90 -319 -84 -6 2 62 26 152 53 169
52 198 64 186 83 -11 18 -39 14 -181 -23 -71 -18 -131 -32 -133 -31 -4 5 228
89 303 111 33 9 101 21 150 25 127 10 135 11 135 5z m591 -47 c-33 -54 -211
-225 -211 -204 0 15 -5 17 -26 12 -19 -5 -3 13 57 63 46 39 91 71 101 71 10 0
18 5 18 11 0 15 74 96 78 87 2 -5 -5 -23 -17 -40z m-171 -62 c-41 -39 -125
-106 -133 -106 -5 0 24 27 64 60 70 56 101 77 69 46z m-1186 -40 c-22 -12 -54
-33 -70 -44 -33 -25 -115 -48 -200 -56 l-59 -6 50 21 c58 25 295 108 310 108
6 1 -8 -10 -31 -23z m-420 -180 c-55 -18 -106 -36 -113 -41 -9 -5 -12 -3 -9 6
2 8 27 26 54 41 39 22 62 27 109 27 l60 -1 -101 -32z m-312 -238 c-7 -7 -12
-8 -12 -2 0 14 12 26 19 19 2 -3 -1 -11 -7 -17z m1018 -240 c-25 -22 -155
-136 -290 -253 -135 -117 -312 -272 -395 -344 -202 -178 -224 -193 -162 -114
90 114 291 300 527 488 116 93 351 265 360 264 3 0 -15 -18 -40 -41z m-935
-918 c-10 -11 -21 -17 -24 -14 -3 3 3 12 13 20 28 20 32 17 11 -6z"/>
<path d="M9585 4715 c-22 -7 -52 -10 -67 -8 -29 6 -51 -19 -64 -72 -4 -16 -20
-50 -36 -74 -21 -33 -28 -57 -28 -92 0 -96 44 -136 157 -146 57 -5 76 -2 108
15 74 38 107 90 129 206 22 112 8 143 -74 170 -56 18 -70 19 -125 1z m46 -129
c24 -26 -7 -126 -39 -126 -11 0 -31 9 -46 21 -40 32 -34 64 22 115 44 41 47
42 50 21 2 -12 8 -26 13 -31z"/>
<path d="M3602 4447 c-12 -7 -29 -23 -38 -36 -9 -12 -27 -26 -40 -31 -14 -6
-26 -15 -28 -22 -2 -7 -16 -49 -30 -93 -33 -101 -33 -135 -1 -173 14 -17 25
-33 25 -38 0 -17 85 -84 107 -84 42 0 171 71 214 117 73 79 116 208 87 262
-26 48 -62 65 -135 63 -57 0 -71 3 -96 24 -33 27 -34 28 -65 11z m112 -140
c27 -7 51 -18 53 -24 2 -6 -21 -37 -53 -67 -39 -39 -64 -56 -83 -56 -14 0 -37
-3 -50 -7 -23 -6 -23 -5 -16 38 10 58 14 63 35 44 23 -21 36 -4 18 24 -10 17
-9 23 6 40 22 24 25 25 90 8z"/>
<path d="M836 4108 c-30 -46 -85 -139 -124 -208 -39 -69 -80 -138 -91 -155
-85 -124 -108 -162 -151 -250 -56 -114 -73 -172 -47 -162 14 5 15 2 6 -21 -6
-15 -27 -70 -46 -122 -19 -52 -41 -105 -49 -118 -13 -20 -13 -23 2 -29 22 -8
27 2 96 177 31 80 62 154 69 165 168 277 435 778 424 795 -15 24 -39 4 -89
-72z m-340 -635 c-8 -15 -15 -25 -16 -21 0 12 23 58 27 54 3 -2 -2 -17 -11
-33z m-30 -70 c-8 -15 -15 -25 -16 -21 0 12 23 58 27 54 3 -2 -2 -17 -11 -33z"/>
<path d="M9475 3408 c-2 -7 -6 -41 -8 -76 -4 -50 -2 -65 10 -69 12 -5 14 -25
8 -127 -25 -481 -71 -833 -225 -1736 -166 -968 -197 -1244 -154 -1336 9 -19
24 -34 34 -34 15 0 18 18 23 173 7 175 25 324 96 777 97 618 221 1558 246
1863 17 213 20 513 5 551 -10 28 -28 34 -35 14z"/>
<path d="M5422 2808 c-15 -15 -16 -134 -2 -143 31 -19 -13 -658 -81 -1175 -32
-243 -86 -581 -99 -614 -6 -19 -8 -17 -14 11 -4 19 -14 33 -22 33 -17 0 -17 8
1 -87 8 -43 15 -106 15 -139 0 -61 9 -77 38 -67 8 3 12 29 12 80 0 41 11 136
25 212 96 531 166 1213 169 1633 1 202 -1 240 -14 253 -12 12 -18 13 -28 3z"/>
<path d="M13333 2752 c-7 -4 -26 -70 -43 -147 -54 -245 -52 -241 -113 -263
-78 -30 -273 -90 -313 -98 -30 -5 -33 -4 -28 11 7 16 2 17 -42 10 -62 -9 -86
-22 -82 -43 2 -13 16 -18 60 -20 62 -3 156 18 325 73 58 20 109 33 112 30 5
-5 -176 -565 -183 -565 -1 0 0 29 2 65 5 80 -6 83 -67 21 -45 -45 -43 -71 3
-35 32 25 32 26 10 -111 -17 -106 -15 -130 11 -130 21 0 33 29 130 314 l82
240 0 -220 c-1 -355 46 -602 109 -577 17 6 32 60 36 132 4 65 -17 84 -27 24
-16 -96 -17 -100 -25 -77 -4 11 -16 65 -26 120 -33 178 -23 714 15 817 7 17
139 74 401 171 94 34 110 43 110 57 0 22 -67 3 -271 -78 -121 -47 -221 -84
-225 -81 -3 3 9 64 26 136 47 201 49 246 13 224z"/>
<path d="M10304 2696 c-37 -17 -64 -51 -64 -84 0 -30 24 -24 28 7 12 79 214
79 373 -1 187 -93 279 -252 249 -430 -25 -145 -161 -359 -309 -486 -68 -59
-218 -158 -226 -150 -3 2 0 74 5 159 16 267 12 492 -15 694 -4 28 -2 36 4 25
7 -10 13 -11 20 -5 14 15 -47 195 -66 195 -13 0 -14 -10 -9 -52 30 -256 39
-415 38 -686 0 -161 -4 -306 -7 -322 -6 -25 -14 -32 -58 -45 -59 -17 -153 -20
-163 -4 -7 12 38 63 79 87 27 16 37 42 17 42 -19 0 -118 -68 -129 -89 -16 -30
-13 -56 8 -75 63 -57 252 -6 436 117 86 58 221 198 289 300 175 264 176 479 4
651 -110 108 -246 166 -390 166 -47 -1 -96 -7 -114 -14z"/>
<path d="M7116 2618 c-38 -60 -78 -233 -91 -400 -7 -79 -6 -88 10 -88 13 0 15
-6 11 -27 -3 -16 -10 -57 -16 -93 -18 -110 -16 -107 -64 -119 -25 -6 -70 -11
-100 -11 -31 0 -56 -4 -56 -9 0 -17 63 -56 68 -43 2 7 14 12 26 12 13 0 37 5
55 11 18 6 35 9 38 5 6 -6 -28 -232 -52 -346 -7 -36 -17 -98 -21 -137 -6 -63
-4 -74 10 -79 9 -4 20 -4 23 0 3 3 21 106 39 228 18 123 38 254 44 292 l12 68
74 34 c41 18 74 38 74 44 0 14 -9 13 -78 -14 -34 -14 -62 -22 -62 -19 0 3 23
139 51 303 49 292 58 399 32 407 -6 2 -18 -6 -27 -19z m-17 -218 c-12 -63 -24
-133 -29 -155 l-8 -40 -1 40 c-1 61 43 284 54 273 2 -2 -5 -55 -16 -118z m-42
-222 c-3 -8 -6 -5 -6 6 -1 11 2 17 5 13 3 -3 4 -12 1 -19z"/>
<path d="M6231 2522 c-26 -22 -52 -113 -33 -119 6 -3 12 -10 12 -16 0 -23
-164 -609 -168 -598 -2 6 1 34 7 62 11 50 8 74 -9 64 -4 -3 -15 -38 -24 -79
-11 -46 -23 -76 -32 -80 -12 -5 -14 -15 -10 -44 4 -23 -3 -86 -19 -167 -27
-139 -33 -259 -13 -271 17 -11 35 20 42 74 3 26 22 113 42 195 32 133 38 147
57 147 12 0 53 11 91 25 39 13 71 23 72 22 1 -1 9 -94 18 -207 26 -327 41
-406 76 -385 18 11 7 233 -13 249 -10 8 -18 56 -26 166 -6 85 -11 165 -11 177
0 18 15 30 71 59 89 44 81 66 -10 29 -35 -15 -64 -25 -66 -23 -9 10 -27 547
-21 628 7 105 2 121 -33 92z m12 -673 l6 -67 -57 -20 c-89 -32 -112 -36 -112
-20 0 15 126 482 137 508 4 8 10 -64 14 -160 4 -96 10 -205 12 -241z"/>
<path d="M8041 2474 c-27 -35 -49 -96 -86 -238 l-31 -121 -79 -32 c-44 -18
-96 -32 -116 -33 -42 0 -76 -21 -64 -40 11 -18 76 -7 164 29 41 17 75 31 78
31 10 0 -261 -485 -277 -495 -5 -3 -11 -1 -15 5 -3 5 -42 10 -85 10 -43 0 -81
4 -85 9 -6 12 4 83 15 101 6 9 19 9 63 -4 67 -19 77 -20 77 -2 0 18 -129 57
-152 45 -17 -9 -32 -48 -43 -111 -6 -29 -3 -40 14 -57 17 -17 33 -21 91 -21
66 0 70 -1 70 -23 0 -12 -15 -55 -34 -94 -27 -57 -32 -74 -22 -82 19 -16 28
-3 195 284 170 293 174 299 167 270 -3 -11 -12 -74 -21 -140 -20 -158 -20
-324 1 -373 17 -42 61 -92 81 -92 18 0 17 7 -11 43 -13 18 -28 47 -35 66 -21
65 -10 248 30 491 32 197 32 196 89 221 28 12 50 28 50 36 0 11 -5 13 -17 8
-42 -17 -56 -18 -50 -4 85 202 110 296 88 323 -18 22 -26 20 -50 -10z"/>
<path d="M1840 2436 c-103 -31 -168 -59 -282 -118 -92 -48 -118 -73 -103 -98
8 -13 52 -13 60 0 3 6 1 10 -4 10 -58 0 143 105 299 156 57 19 106 29 150 29
64 0 65 -1 68 -28 8 -70 -121 -258 -313 -454 l-96 -98 4 183 c3 126 0 181 -7
179 -19 -6 -24 -50 -25 -223 l-1 -170 -33 -32 -32 -31 -140 -3 c-117 -3 -140
-6 -140 -18 0 -12 16 -14 94 -12 52 2 105 1 119 -3 l25 -6 -34 -35 c-43 -45
-181 -150 -209 -159 -11 -3 -20 -15 -20 -26 0 -15 7 -19 38 -19 40 0 168 69
242 130 43 35 33 50 -18 27 l-37 -17 50 45 c27 25 58 45 69 45 18 0 18 -7 12
-170 -5 -114 -4 -170 3 -170 12 0 19 48 30 202 4 65 10 120 13 123 9 10 140
-44 211 -86 207 -123 297 -292 230 -430 -27 -53 -28 -59 -9 -59 7 0 26 18 42
41 39 57 44 141 14 222 -49 129 -243 283 -432 343 -46 14 -58 22 -58 38 0 13
47 71 115 144 242 259 334 395 335 489 0 86 -78 106 -230 59z"/>
<path d="M4604 2413 c-33 -76 -136 -618 -169 -888 -15 -122 -20 -281 -9 -309
8 -22 41 -20 54 3 16 32 13 64 -6 57 -15 -6 -16 4 -10 101 13 210 111 809 140
863 16 30 35 109 38 164 4 53 -18 58 -38 9z"/>
<path d="M3307 2393 c-34 -38 -85 -296 -103 -523 -5 -68 -30 -162 -50 -189 -2
-2 -22 13 -45 33 -134 114 -258 36 -259 -162 0 -110 28 -152 103 -152 61 0
140 75 210 199 l24 42 7 -121 c13 -241 81 -349 185 -296 42 22 116 145 123
204 1 9 4 -19 7 -63 5 -60 10 -80 20 -80 23 0 28 40 22 175 -5 100 -9 125 -21
128 -11 2 -21 -16 -34 -64 -19 -66 -82 -204 -108 -235 -19 -23 -54 -40 -72
-33 -20 8 -53 76 -66 140 -6 30 -9 122 -7 225 4 166 5 179 39 289 44 141 88
353 88 424 0 71 -28 97 -63 59z m-8 -242 c-13 -64 -25 -108 -27 -99 -5 25 41
257 46 234 2 -11 -6 -72 -19 -135z m-244 -440 c17 -11 43 -30 59 -43 l28 -24
-54 -79 c-78 -115 -135 -148 -178 -105 -16 16 -20 33 -20 81 0 154 72 229 165
170z"/>
<path d="M11960 2206 c0 -8 18 -21 40 -30 50 -20 50 -20 50 0 0 8 -16 22 -35
30 -43 18 -55 18 -55 0z"/>
<path d="M7243 2008 c-6 -7 -14 -42 -17 -78 -6 -58 -10 -67 -36 -82 -59 -34
-83 -135 -78 -333 3 -105 5 -120 21 -123 27 -5 45 50 89 278 22 113 44 213 49
222 25 47 -1 151 -28 116z m-40 -220 c-4 -18 -17 -82 -29 -143 l-23 -110 3
110 c2 108 20 175 46 175 5 0 7 -14 3 -32z"/>
<path d="M8534 1949 c-46 -13 -112 -122 -160 -263 -52 -153 -19 -232 96 -230
104 1 206 74 230 164 19 72 -8 100 -29 30 -25 -85 -112 -149 -202 -150 -84 0
-98 46 -54 176 32 94 79 189 110 220 13 13 36 24 50 24 20 0 26 4 23 17 -4 21
-22 25 -64 12z"/>
<path d="M3554 1916 c-3 -7 -4 -39 -2 -71 3 -55 4 -58 31 -61 27 -3 27 -1 21
34 -17 100 -35 136 -50 98z"/>
<path d="M3831 1858 c-41 -84 -76 -213 -90 -325 -14 -115 -2 -155 55 -179 73
-30 153 10 254 129 63 74 83 107 63 107 -4 0 -48 -40 -98 -90 -50 -49 -104
-94 -119 -100 -37 -14 -89 -13 -104 2 -27 27 -6 212 40 356 l22 67 12 -63 c10
-56 28 -94 37 -81 2 2 0 56 -3 119 -4 96 -8 115 -22 118 -11 2 -25 -15 -47
-60z"/>
<path d="M12578 1890 c-47 -37 -85 -221 -53 -254 9 -9 20 -16 24 -16 22 0 67
50 108 122 25 43 51 82 56 85 7 4 8 -28 4 -94 -7 -113 -2 -143 23 -143 12 0
26 20 45 63 50 114 56 124 78 145 12 11 31 22 41 24 38 6 30 28 -11 28 -48 -1
-66 -15 -103 -81 l-30 -54 0 80 c0 44 -4 86 -8 92 -4 7 -39 15 -77 19 -62 5
-73 4 -97 -16z m102 -15 c0 -13 -102 -184 -116 -196 -16 -13 -16 -9 -10 44 11
83 29 130 57 144 24 13 69 18 69 8z"/>
<path d="M8284 1885 c-7 -17 10 -35 34 -35 18 0 15 14 -8 35 -18 17 -20 17
-26 0z"/>
<path d="M11161 1872 c-57 -49 -104 -385 -64 -462 42 -81 119 -71 172 22 40
70 64 180 59 270 -3 64 -7 73 -36 99 -18 16 -41 29 -51 29 -12 0 -21 9 -25 24
-8 32 -30 39 -55 18z m29 -46 c0 -7 -8 -20 -17 -27 -15 -12 -16 -12 -10 4 4
10 7 23 7 28 0 5 5 9 10 9 6 0 10 -6 10 -14z m78 -58 c34 -41 19 -194 -28
-295 -22 -48 -35 -64 -56 -69 -60 -15 -79 67 -54 235 9 68 45 121 82 121 10 0
18 5 18 10 0 14 26 12 38 -2z"/>
<path d="M12173 1874 c-8 -21 3 -314 12 -337 4 -10 15 -17 24 -15 19 4 43 51
90 176 19 50 36 90 38 88 2 -2 7 -56 12 -120 8 -122 18 -149 49 -130 18 11 72
110 72 132 0 23 -21 12 -42 -23 -11 -20 -23 -33 -26 -31 -3 3 -9 52 -13 108
-8 108 -21 135 -57 124 -19 -7 -68 -101 -92 -181 -23 -76 -30 -60 -30 67 0 70
-3 133 -6 142 -8 20 -23 20 -31 0z"/>
<path d="M11782 1813 c-15 -28 -82 -241 -82 -259 0 -43 -12 2 -26 97 -8 57
-22 114 -30 127 -23 36 -52 28 -73 -20 -45 -101 -42 -97 -36 -46 5 54 -1 78
-21 78 -12 0 -14 -30 -12 -182 3 -162 5 -183 20 -186 13 -2 18 7 23 45 18 127
58 283 70 271 2 -2 11 -57 20 -123 18 -127 27 -155 50 -155 23 0 43 39 76 154
33 110 49 123 49 39 0 -30 6 -49 21 -64 18 -18 23 -19 42 -6 12 7 40 40 62 71
l40 58 3 -77 c2 -66 5 -76 20 -73 15 3 17 17 17 103 0 100 0 100 -26 103 -21
2 -32 -8 -74 -68 -26 -38 -52 -70 -57 -70 -4 0 -8 26 -9 58 -1 105 -40 177
-67 125z"/>
<path d="M4253 1740 c-65 -39 -143 -249 -99 -266 26 -10 57 17 107 93 l49 76
0 -95 c0 -76 3 -98 16 -109 15 -12 21 -8 55 31 40 46 56 77 45 88 -4 3 -20 -7
-36 -23 l-30 -29 0 122 0 122 -24 0 c-13 0 -30 2 -38 5 -7 3 -27 -4 -45 -15z
m47 -26 c0 -11 -103 -165 -107 -160 -8 8 46 119 69 143 20 22 38 30 38 17z"/>
<path d="M8229 1669 c-48 -91 -111 -409 -80 -409 18 0 30 31 81 218 45 163 52
195 39 203 -21 13 -27 11 -40 -12z"/>
<path d="M6580 1637 c-11 -25 -25 -79 -32 -121 -13 -82 -18 -85 -37 -18 -7 25
-17 42 -24 39 -16 -5 -16 -6 11 -122 13 -55 26 -110 28 -122 2 -13 11 -23 19
-23 15 0 20 23 30 135 8 89 34 205 46 205 5 0 18 -20 29 -45 21 -49 40 -59 40
-22 0 34 -52 131 -73 135 -12 3 -23 -9 -37 -41z"/>
<path d="M2654 1655 c-10 -8 -35 -15 -55 -15 -72 0 -178 -114 -208 -223 -16
-57 -12 -81 16 -85 39 -6 81 27 140 108 31 43 59 78 60 76 2 -2 -4 -19 -12
-39 -10 -25 -12 -38 -4 -43 6 -3 14 -2 19 2 9 10 46 115 55 158 11 50 17 21
25 -120 10 -154 19 -175 67 -158 15 5 29 18 31 28 3 15 0 18 -20 13 l-24 -7
-11 145 c-12 170 -26 200 -79 160z m-124 -164 c-70 -97 -100 -126 -100 -96 0
25 38 98 72 139 34 42 91 81 96 67 2 -5 -29 -55 -68 -110z"/>
</g>
</svg>
